<?xml version="1.0" encoding="iso-8859-1"?>
<!-- Generator: Adobe Illustrator 19.0.0, SVG Export Plug-In . SVG Version: 6.00 Build 0)  -->
<svg version="1.1" id="Capa_1" xmlns="http://www.w3.org/2000/svg" xmlns:xlink="http://www.w3.org/1999/xlink" x="0px" y="0px"
	 viewBox="0 0 512.001 512.001" style="enable-background:new 0 0 512.001 512.001;" xml:space="preserve">
<path style="fill:#FAC149;" d="M477.186,299.453h-277.96c-4.289,0-7.987-3.013-8.854-7.214l-56.46-273.746
	c-1.327-6.432-6.99-11.046-13.557-11.046H35.004c-6.429,0-12.245,4.256-13.757,10.505c-2.237,9.245,4.707,17.495,13.577,17.495
	h70.726c2.048,0,3.814,1.439,4.227,3.444l53.117,257.538c0.572,2.774-0.997,5.512-3.653,6.498
	c-20.154,7.481-34.196,27.649-32.366,50.753c2.06,26.009,24.353,45.775,50.443,45.775h257.499c6.43,0,12.246-4.257,13.757-10.506
	c2.236-9.246-4.707-17.494-13.577-17.494h-257.95c-11.937,0-22.139-9.263-22.568-21.193c-0.449-12.497,9.587-22.807,21.986-22.807
	h300.542c6.43,0,12.246-4.257,13.757-10.506C493.001,307.703,486.056,299.453,477.186,299.453z"/>
<g>
	<path style="fill:#F8A748;" d="M141.457,354.6c-2.168-22.175,11.193-36.416,29.847-43.665c4.855-1.887,7.584-7.065,6.533-12.167
		L124.278,38.892c-0.414-2.006-2.18-3.444-4.227-3.444h-14.5c2.048,0,3.814,1.439,4.227,3.444l53.117,257.538
		c0.572,2.774-0.997,5.512-3.653,6.498c-20.154,7.481-34.196,27.649-32.366,50.753c2.06,26.009,24.354,45.775,50.443,45.775h14.471
		C166.056,399.456,143.961,380.212,141.457,354.6z"/>
	<path style="fill:#F8A748;" d="M213.407,406.956c-4.142,0-7.5-3.357-7.5-7.5v-28.001c0-4.143,3.358-7.5,7.5-7.5s7.5,3.357,7.5,7.5
		v28.001C220.907,403.599,217.549,406.956,213.407,406.956z"/>
	<path style="fill:#F8A748;" d="M395.41,406.956c-4.142,0-7.5-3.357-7.5-7.5v-28.001c0-4.143,3.358-7.5,7.5-7.5s7.5,3.357,7.5,7.5
		v28.001C402.911,403.599,399.553,406.956,395.41,406.956z"/>
</g>
<g>
	<path style="fill:#F38D1A;" d="M213.407,383.455c-4.142,0-7.5-3.357-7.5-7.5v23.501c0,4.143,3.358,7.5,7.5,7.5s7.5-3.357,7.5-7.5
		v-23.501C220.907,380.098,217.549,383.455,213.407,383.455z"/>
	<path style="fill:#F38D1A;" d="M395.41,383.455c-4.142,0-7.5-3.357-7.5-7.5v23.501c0,4.143,3.358,7.5,7.5,7.5s7.5-3.357,7.5-7.5
		v-23.501C402.911,380.098,399.553,383.455,395.41,383.455z"/>
</g>
<path style="fill:#647892;" d="M88.404,7.447H34.609c-6.43,0-12.246,4.257-13.757,10.506c-2.236,9.246,4.707,17.494,13.577,17.494
	h53.976L88.404,7.447L88.404,7.447z"/>
<path style="fill:#4D6682;" d="M54.839,17.953c1.512-6.249,7.328-10.506,13.757-10.506H34.608c-6.429,0-12.246,4.257-13.757,10.506
	c-2.236,9.246,4.707,17.494,13.577,17.494h33.989C59.546,35.448,52.603,27.2,54.839,17.953z"/>
<path style="fill:#647892;" d="M239.473,497.442c-25.158,14.524-57.441,5.874-71.966-19.283
	c-14.524-25.158-5.874-57.44,19.283-71.966c25.158-14.524,57.441-5.874,71.966,19.283
	C273.281,450.634,264.631,482.917,239.473,497.442z M200.635,430.172c-11.935,6.891-16.04,22.207-9.149,34.143
	c6.891,11.935,22.207,16.039,34.143,9.148s16.039-22.207,9.148-34.143C227.887,427.385,212.571,423.281,200.635,430.172z"/>
<path style="fill:#4D6682;" d="M219.2,476.059c-24.307,6.073-41.454-23.59-24.028-41.617c-0.601-12.469,3.247-24.874,10.913-34.824
	c-6.614,0.884-13.166,3.037-19.294,6.575c-25.158,14.525-33.808,46.808-19.283,71.966c18.68,32.356,64.474,35.496,87.307,5.861
	C242.364,485.683,229.699,482.814,219.2,476.059z"/>
<path style="fill:#647892;" d="M422.01,497.442c-25.158,14.524-57.441,5.874-71.966-19.283s-5.874-57.44,19.283-71.966
	c25.158-14.524,57.441-5.874,71.966,19.283C455.818,450.634,447.167,482.917,422.01,497.442z M383.171,430.172
	c-11.935,6.891-16.04,22.207-9.149,34.143c6.891,11.935,22.207,16.039,34.143,9.148s16.039-22.207,9.148-34.143
	C410.423,427.385,395.107,423.281,383.171,430.172z"/>
<path style="fill:#4D6682;" d="M401.737,476.059c-24.307,6.073-41.454-23.59-24.027-41.617c-0.6-12.469,3.247-24.874,10.913-34.824
	c-6.614,0.884-13.166,3.037-19.294,6.575c-25.158,14.525-33.808,46.808-19.283,71.966c14.524,25.158,46.808,33.808,71.966,19.283
	c6.128-3.538,11.268-8.136,15.341-13.422C424.901,485.683,412.235,482.814,401.737,476.059z"/>
<path d="M395.663,419.324c-17.917,0-32.495,14.576-32.495,32.494c0,17.917,14.577,32.495,32.495,32.495
	c17.917,0,32.495-14.577,32.495-32.495C428.158,433.9,413.581,419.324,395.663,419.324z M395.663,469.312
	c-9.646,0-17.494-7.848-17.494-17.494c0-9.646,7.848-17.493,17.494-17.493c9.647,0,17.494,7.848,17.494,17.493
	C413.158,461.464,405.31,469.312,395.663,469.312z"/>
<path d="M486.577,294.199v-74.56c3.873-0.295,6.925-3.522,6.925-7.471c0-3.948-3.052-7.176-6.925-7.471V145.61
	c0-8.572-6.44-15.589-14.982-16.32l-312.713-26.779l-17.63-85.479C139.214,7.163,130.423,0,120.347,0c-13.092,0-65.198,0-85.606,0
	C22.971,0,13.396,9.575,13.396,21.344s9.575,21.344,21.344,21.344c14.017,0,54.765,0,68.215,0l11.364,55.105
	c0.837,4.057,4.806,6.668,8.86,5.831c4.057-0.837,6.667-4.804,5.831-8.86l-12.599-61.09c-0.719-3.485-3.787-5.985-7.346-5.985
	H95.614V15h24.733c2.995,0,5.608,2.129,6.213,5.062l0,0c0,0.001,0-0.001,0,0l57.952,280.981c0.003,0.017-0.003-0.017,0,0l0,0
	c0.719,3.485,3.787,5.985,7.346,5.985c43.812,0,256.749,0,285.402,0c0.135,0,0.266,0.012,0.398,0.02
	c0.131,0.011,0.272,0.026,0.432,0.047c0.026,0.003,0.051,0.002,0.077,0.005c3.069,0.442,5.437,3.082,5.437,6.271
	c0,3.498-2.846,6.344-6.344,6.344h-64.096c-4.143,0-7.5,3.357-7.5,7.5s3.357,7.5,7.5,7.5h64.096
	c11.768,0,21.344-9.575,21.344-21.344C498.604,304.947,493.684,297.667,486.577,294.199z M80.614,27.689H34.741
	c-3.498,0-6.344-2.846-6.344-6.344S31.243,15,34.741,15h45.873V27.689z M197.519,289.845l-14.474-70.177h14.474V289.845z
	 M197.519,204.668h-17.567l-17.909-86.832l35.477,3.038V204.668z M243.153,292.028H212.52V219.67h30.634V292.028z M243.153,204.668
	H212.52V122.16l30.634,2.623V204.668z M288.787,292.028h-30.634V219.67h30.634V292.028z M288.787,204.668h-30.634v-78.602
	l30.634,2.623V204.668z M334.422,292.028h-30.635V219.67h30.635V292.028z M334.422,204.668h-30.635v-74.694l30.635,2.623V204.668z
	 M380.055,292.028h-30.634V219.67h30.634V292.028z M380.055,204.668h-30.634v-70.786l30.634,2.623V204.668z M425.689,292.028
	h-30.634V219.67h30.634V292.028z M425.689,204.668h-30.634v-66.877l30.634,2.623V204.668z M471.577,292.028h-30.888V219.67h30.888
	V292.028z M471.577,204.668h-30.888v-62.969l29.625,2.537c0.72,0.062,1.263,0.652,1.263,1.375V204.668z"/>
<path d="M456.415,385.291c0-11.768-9.575-21.344-21.344-21.344h-31.924c-0.176-3.986-3.453-7.166-7.483-7.166
	s-7.307,3.18-7.483,7.166h-167.57c-0.176-3.986-3.453-7.166-7.483-7.166c-4.03,0-7.307,3.18-7.483,7.166h-29.127
	c-8.059,0-14.615-6.557-14.615-14.615c0-8.059,6.557-14.615,14.615-14.615h201.646c4.143,0,7.5-3.357,7.5-7.5s-3.357-7.5-7.5-7.5
	H176.517c-16.33,0-29.616,13.285-29.616,29.616c0,16.33,13.285,29.616,29.616,29.616h29.11v12.688h-29.11
	c-23.327,0-42.304-18.977-42.304-42.304c0-19.23,12.996-36.063,31.605-40.931c3.859-1.01,6.253-4.864,5.447-8.77l-35.183-170.584
	c-0.837-4.057-4.804-6.666-8.86-5.831c-4.057,0.837-6.667,4.804-5.831,8.86l33.835,164.051
	c-21.518,8.604-36.014,29.566-36.014,53.205c0,30.594,24.101,55.664,54.313,57.225c-12.601,11.039-20.581,27.231-20.581,45.26
	c0,8.727,1.851,17.171,5.5,25.097c1.733,3.762,6.186,5.407,9.95,3.675c3.762-1.733,5.407-6.188,3.675-9.95
	c-2.737-5.942-4.125-12.274-4.125-18.82c0-24.914,20.269-45.182,45.183-45.182s45.182,20.268,45.182,45.182
	c0,24.914-20.268,45.183-45.182,45.183c-7.068,0-13.853-1.605-20.166-4.77c-3.705-1.858-8.21-0.36-10.066,3.342
	c-1.856,3.703-0.36,8.21,3.342,10.066c8.419,4.222,17.467,6.362,26.892,6.362c33.185,0,60.182-26.998,60.182-60.183
	c0-17.986-7.942-34.144-20.491-45.182h103.154c-12.549,11.037-20.491,27.195-20.491,45.182c0,33.185,26.998,60.183,60.183,60.183
	s60.183-26.998,60.183-60.183c0-17.994-7.948-34.158-20.507-45.195C446.984,406.476,456.415,396.97,456.415,385.291z
	 M220.628,391.635v-12.687h167.536v12.688L220.628,391.635L220.628,391.635z M440.845,451.818c0,24.914-20.268,45.183-45.183,45.183
	c-24.914,0-45.183-20.269-45.183-45.183c0-24.914,20.269-45.182,45.183-45.182C420.577,406.636,440.845,426.904,440.845,451.818z
	 M435.07,391.635h-31.907v-12.687h31.907c3.498,0,6.344,2.846,6.344,6.344C441.414,388.789,438.568,391.635,435.07,391.635z"/>
<path d="M213.128,484.312c17.917,0,32.494-14.577,32.494-32.495c0-17.917-14.576-32.494-32.494-32.494s-32.495,14.576-32.495,32.494
	C180.632,469.735,195.21,484.312,213.128,484.312z M213.128,434.324c9.646,0,17.493,7.848,17.493,17.493
	c0,9.646-7.848,17.494-17.493,17.494c-9.646,0-17.494-7.848-17.494-17.494C195.632,442.171,203.48,434.324,213.128,434.324z"/>
<g>
</g>
<g>
</g>
<g>
</g>
<g>
</g>
<g>
</g>
<g>
</g>
<g>
</g>
<g>
</g>
<g>
</g>
<g>
</g>
<g>
</g>
<g>
</g>
<g>
</g>
<g>
</g>
<g>
</g>
</svg>
